# xmcd
# 
# Track frame offsets:
#     150
#     22235
#     36628
#     55103
#     77866
#     94691
#     110902
#     122265
#     132848
#     151562
#     173300
#     190929
#     205241
#     222128
#     237992
#     257960
# 
# Disc length: 3682
# 
# Revision: 2
# Processed by: cddbd v1.5.2PL0 Copyright (c) Steve Scherf et al.
# Submitted via: fre:ac v1.0.17
# 
DISCID=d90e6010
DTITLE=Various Artist - 50 Grootste Geestelike Treffers Vol 2 CD1 - Houtkrius
DYEAR=2004
DGENRE=Gospel
TTITLE0=Juanita du Plessis - Houtkruis
TTITLE1=Danie Botha - Was nie die Spykers
TTITLE2=Wanda de Kock - Koning van die Konings
TTITLE3=Jan de Wet - Ons Glo
TTITLE4=Cathy Viljoen - Hy Leef
TTITLE5=Willie Joubert - Habakuk 3
TTITLE6=Piet Smit and Danie Botha - U is Waardig
TTITLE7=Ronéll Erasmus - Voel jy soms of die Here te ver is
TTITLE8=Lucas Maree and Innes Benadé - Hier is ek
TTITLE9=Prophet - Jesu
TTITLE10=Marié du Toit - Op my knieë
TTITLE11=Jan de Wet - Sy naam is Jahwe
TTITLE12=Willie Joubert - Maak tyd
TTITLE13=Leon Goosen - Glory lorrie
TTITLE14=Lisbé Visser - Ek is veilig
TTITLE15=Prophet - Se die engelliedjie
EXTD=
EXTT0=
EXTT1=
EXTT2=
EXTT3=
EXTT4=
EXTT5=
EXTT6=
EXTT7=
EXTT8=
EXTT9=
EXTT10=
EXTT11=
EXTT12=
EXTT13=
EXTT14=
EXTT15=
PLAYORDER=
